<svg xmlns="http://www.w3.org/2000/svg" width="748" height="396" fill="none"><path stroke="url(#a)" stroke-width="2" d="M743.846 27.776c6.088 13.23 1.981 30.669-11.252 51.111-13.201 20.394-35.32 43.508-64.672 67.894-58.693 48.763-146.125 102.463-248.385 149.517-102.259 47.054-199.921 78.523-275.137 91.377-37.615 6.428-69.559 8.191-93.635 4.95-24.134-3.248-40.05-11.473-46.138-24.703-6.088-13.23-1.98-30.669 11.253-51.111 13.2-20.394 35.32-43.508 64.672-67.894C139.244 200.154 226.676 146.454 328.936 99.4c102.26-47.055 199.921-78.523 275.137-91.377 37.615-6.429 69.559-8.191 93.635-4.95 24.134 3.248 40.051 11.473 46.138 24.703Z"/><defs><linearGradient id="a" x1="423" x2="510" y1="66" y2="227" gradientUnits="userSpaceOnUse"><stop stop-color="#BD00FF" stop-opacity="0"/><stop offset=".305" stop-color="#BD00FF"/><stop offset="1" stop-color="#BD00FF" stop-opacity="0"/></linearGradient></defs></svg>