<svg xmlns="http://www.w3.org/2000/svg" width="324" height="173" fill="none"><path stroke="url(#a)" stroke-width="2" d="M321.855 12.755c2.516 5.5.871 12.887-4.844 21.767-5.684 8.831-15.233 18.875-27.948 29.5-25.418 21.239-63.308 44.648-107.646 65.167S94.753 163.422 62.18 169.02c-16.294 2.801-30.09 3.561-40.455 2.157-10.42-1.41-17.064-4.957-19.58-10.455-2.516-5.5-.871-12.887 4.844-21.766 5.684-8.832 15.233-18.876 27.948-29.5 25.418-21.24 63.308-44.649 107.646-65.168 44.338-20.519 86.664-34.232 119.237-39.83C278.114 1.655 291.91.896 302.275 2.3c10.421 1.41 17.064 4.957 19.58 10.455Z"/><defs><linearGradient id="a" x1="183.158" x2="221.242" y1="29.202" y2="99.277" gradientUnits="userSpaceOnUse"><stop stop-color="#BD00FF" stop-opacity="0"/><stop offset=".305" stop-color="#BD00FF"/><stop offset="1" stop-color="#BD00FF" stop-opacity="0"/></linearGradient></defs></svg>