<svg xmlns="http://www.w3.org/2000/svg" width="351" height="160" fill="none"><path fill="#3DDEED" fill-opacity=".8" d="M245.912 49h-1.568V37.432h1.568v4.976h5.728v-4.976h1.568V49h-1.568v-5.136h-5.728V49Zm13.099.192c-2.304 0-3.888-1.664-3.888-4.096 0-2.448 1.552-4.144 3.824-4.144 2.224 0 3.68 1.536 3.68 3.856v.56l-6.048.016c.112 1.648.976 2.56 2.464 2.56 1.168 0 1.936-.48 2.192-1.376h1.408c-.384 1.68-1.696 2.624-3.632 2.624Zm-.064-6.976c-1.312 0-2.144.784-2.336 2.16h4.512c0-1.296-.848-2.16-2.176-2.16ZM265.843 49h-1.504V37.224h1.504V49Zm3.75 0h-1.504V37.224h1.504V49Zm1.702-3.92c0-2.416 1.728-4.112 4.08-4.112 2.336 0 4.064 1.696 4.064 4.112 0 2.416-1.728 4.112-4.064 4.112-2.352 0-4.08-1.696-4.08-4.112Zm1.52 0c0 1.632 1.04 2.768 2.56 2.768 1.504 0 2.56-1.136 2.56-2.768s-1.056-2.768-2.56-2.768c-1.52 0-2.56 1.136-2.56 2.768Zm10.06 3.296a2.28 2.28 0 0 1-2 2.256v-.672c.656-.112 1.12-.544 1.12-1.04a.823.823 0 0 1-.432.096c-.528 0-.976-.384-.976-.976 0-.64.432-1.104 1.072-1.104.672 0 1.216.56 1.216 1.44Zm5.773-2.592v-.576h1.52v.576c0 1.136.624 1.952 1.904 1.952 1.312 0 1.888-.8 1.888-2v-8.304h1.568V45.8c0 2.08-1.392 3.392-3.456 3.392-2.208 0-3.424-1.408-3.424-3.408Zm8.725-.704c0-2.416 1.728-4.112 4.08-4.112 2.336 0 4.064 1.696 4.064 4.112 0 2.416-1.728 4.112-4.064 4.112-2.352 0-4.08-1.696-4.08-4.112Zm1.52 0c0 1.632 1.04 2.768 2.56 2.768 1.504 0 2.56-1.136 2.56-2.768s-1.056-2.768-2.56-2.768c-1.52 0-2.56 1.136-2.56 2.768Zm9.793 3.904h-1.504v-11.76h1.504v5.152c.496-.848 1.44-1.424 2.656-1.424 2 0 2.96 1.264 2.96 3.264V49h-1.504v-4.448c0-1.584-.752-2.224-1.872-2.224-1.456 0-2.24 1.056-2.24 2.4v4.256Zm9.203.016h-1.504v-7.824h1.36l.16 1.2c.496-.896 1.488-1.424 2.592-1.424 2.064 0 3.008 1.264 3.008 3.264V49h-1.504v-4.448c0-1.584-.736-2.224-1.888-2.224-1.408 0-2.224 1.008-2.224 2.528V49Z"/><path stroke="#3DDEED" stroke-opacity=".8" d="M216.408 8.303h132.304V49.71l-26.54 28.31H216.408V8.302Z"/><path stroke="#3DDEED" stroke-opacity=".8" d="M218.521 10.904h127.752V48.41L320.709 75.58H218.521V10.904Z"/><path fill="#3DDEED" fill-opacity=".8" d="M292.476 5.527v2.439h56.573v8.29L351 13.982V5.527h-58.524Z"/><path stroke="#3DDEED" stroke-opacity=".8" d="M231.514 5.052h.236l.15-.183L235.489.5h6.092v5.828h-24.482l1.003-1.276h13.412Z"/><path fill="#3DDEED" fill-opacity=".8" d="m213.957 65.026 2.113-2.113v15.444h12.518l-1.951 1.95h-12.68v-15.28Z"/><path fill="#3DDEED" fill-opacity=".8" d="M208.267 68.44V36.252l6.503-4.24V62.1l-2.439 2.276v7.153l-4.064-3.089Z"/><path stroke="#3DDEED" stroke-opacity=".8" d="M208 64v42.239h28.701L237 138M171.471 77.5l5.654 10.5-5.654 10.5h-11.249L154.568 88l5.654-10.5h11.249Z"/><path fill="#3DDEED" fill-opacity=".8" d="m174.308 88-4.231 7.118h-8.461L157.385 88l4.231-7.118h8.461L174.308 88Z"/><path stroke="#3DDEED" stroke-opacity=".8" d="m242.471 138.5 5.654 10.5-5.654 10.5h-11.249l-5.654-10.5 5.654-10.5h11.249Z"/><path fill="#3DDEED" fill-opacity=".8" d="m245.308 149-4.231 7.118h-8.461L228.385 149l4.231-7.118h8.461l4.231 7.118Z"/><path stroke="#3DDEED" stroke-opacity=".8" d="M208.43 81.283h-11.38l-6.34 7.153h-13.656"/><path fill="#3DDEED" fill-opacity=".8" stroke="#3DDEED" stroke-opacity=".8" d="M322.388 90.874V79.657h-62.75l3.902 5.04h42.917l3.901 6.177h12.03Z"/><path fill="#fff" d="M135.264 150.888v-7.456h1.568v7.36c0 1.856 1.024 2.88 2.864 2.88 1.824 0 2.832-1.04 2.832-2.88v-7.36h1.584v7.456c0 2.656-1.696 4.304-4.416 4.304-2.736 0-4.432-1.632-4.432-4.304ZM147.999 155h-1.504v-11.776h1.504V155Zm4.422 0h-1.504v-6.56h-1.536v-1.264h1.536v-2.448h1.504v2.448h1.536v1.264h-1.536V155Zm7.366-7.888v1.376h-.672c-1.424 0-2.304.864-2.304 2.368V155h-1.504v-7.808h1.408l.096 1.184c.32-.816 1.104-1.36 2.176-1.36.272 0 .496.032.8.096Zm3.386 8.08c-1.68 0-2.672-.944-2.672-2.368 0-1.44 1.072-2.336 2.912-2.48l2.464-.192v-.224c0-1.312-.784-1.776-1.84-1.776-1.264 0-1.984.56-1.984 1.504h-1.312c0-1.632 1.344-2.704 3.36-2.704 1.936 0 3.248 1.024 3.248 3.136V155h-1.28l-.16-1.264c-.4.896-1.472 1.456-2.736 1.456Zm.432-1.168c1.424 0 2.288-.928 2.288-2.4v-.416l-2 .16c-1.328.128-1.872.64-1.872 1.408 0 .832.608 1.248 1.584 1.248Zm14.682-6.912v1.376h-.672c-1.424 0-2.304.864-2.304 2.368V155h-1.504v-7.808h1.408l.096 1.184c.32-.816 1.104-1.36 2.176-1.36.272 0 .496.032.8.096Zm4.505 8.08c-2.304 0-3.888-1.664-3.888-4.096 0-2.448 1.552-4.144 3.824-4.144 2.224 0 3.68 1.536 3.68 3.856v.56l-6.048.016c.112 1.648.976 2.56 2.464 2.56 1.168 0 1.936-.48 2.192-1.376h1.408c-.384 1.68-1.696 2.624-3.632 2.624Zm-.064-6.976c-1.312 0-2.144.784-2.336 2.16h4.512c0-1.296-.848-2.16-2.176-2.16Zm7.57 6.976c-1.68 0-2.672-.944-2.672-2.368 0-1.44 1.072-2.336 2.912-2.48l2.464-.192v-.224c0-1.312-.784-1.776-1.84-1.776-1.264 0-1.984.56-1.984 1.504h-1.312c0-1.632 1.344-2.704 3.36-2.704 1.936 0 3.248 1.024 3.248 3.136V155h-1.28l-.16-1.264c-.4.896-1.472 1.456-2.736 1.456Zm.432-1.168c1.424 0 2.288-.928 2.288-2.4v-.416l-2 .16c-1.328.128-1.872.64-1.872 1.408 0 .832.608 1.248 1.584 1.248Zm7.363.976h-1.504v-11.776h1.504V155Zm2.95-9.68a.997.997 0 0 1-.992-.992c0-.56.448-.992.992-.992s.992.432.992.992a.997.997 0 0 1-.992.992Zm-.736 9.68v-7.824h1.504V155h-1.504Zm5.895 0h-1.504v-6.56h-1.536v-1.264h1.536v-2.448h1.504v2.448h1.536v1.264h-1.536V155Zm2.134 3.504v-1.232h1.008c.72 0 1.296-.112 1.664-1.104l.272-.752-3.152-8.24h1.584l2.272 6.304 2.32-6.304h1.552l-3.696 9.584c-.528 1.344-1.312 1.904-2.512 1.904-.496 0-.912-.064-1.312-.16ZM5.168 91H1.344V79.432h3.76c3.456 0 5.792 2.336 5.792 5.792 0 3.44-2.304 5.776-5.728 5.776Zm-.176-10.128h-2.08v8.672h2.144c2.576 0 4.208-1.664 4.208-4.32 0-2.688-1.632-4.352-4.272-4.352Zm8.379.448a.997.997 0 0 1-.992-.992c0-.56.448-.992.992-.992s.992.432.992.992a.997.997 0 0 1-.992.992ZM12.635 91v-7.824h1.504V91h-1.504Zm3.047-2.272h1.44c0 .8.608 1.28 1.6 1.28 1.056 0 1.664-.432 1.664-1.152 0-.528-.256-.848-1.072-1.056l-1.376-.32c-1.392-.336-2.048-1.024-2.048-2.176 0-1.44 1.216-2.352 2.944-2.352 1.712 0 2.832.96 2.864 2.448h-1.44c-.032-.784-.56-1.28-1.472-1.28-.944 0-1.472.416-1.472 1.136 0 .528.384.88 1.152 1.072l1.376.336c1.328.32 1.984.928 1.984 2.096 0 1.488-1.28 2.432-3.136 2.432-1.84 0-3.008-.976-3.008-2.464Zm7.3-1.632c0-2.448 1.552-4.144 3.84-4.144 1.968 0 3.344 1.12 3.616 2.864h-1.504c-.256-.992-1.056-1.52-2.064-1.52-1.424 0-2.4 1.088-2.4 2.784 0 1.68.912 2.768 2.336 2.768 1.072 0 1.872-.56 2.144-1.488h1.504c-.304 1.696-1.76 2.832-3.648 2.832-2.304 0-3.824-1.632-3.824-4.096Zm8.547-.016c0-2.416 1.728-4.112 4.08-4.112 2.336 0 4.064 1.696 4.064 4.112 0 2.416-1.728 4.112-4.064 4.112-2.352 0-4.08-1.696-4.08-4.112Zm1.52 0c0 1.632 1.04 2.768 2.56 2.768 1.504 0 2.56-1.136 2.56-2.768s-1.056-2.768-2.56-2.768c-1.52 0-2.56 1.136-2.56 2.768ZM43.171 91l-3.152-7.824h1.6l1.712 4.368c.272.736.496 1.392.624 1.872.128-.512.384-1.184.656-1.872l1.744-4.368h1.568L44.659 91H43.17Zm8.965.192c-2.304 0-3.888-1.664-3.888-4.096 0-2.448 1.552-4.144 3.824-4.144 2.224 0 3.68 1.536 3.68 3.856v.56l-6.048.016c.112 1.648.976 2.56 2.464 2.56 1.168 0 1.936-.48 2.192-1.376h1.408c-.384 1.68-1.696 2.624-3.632 2.624Zm-.064-6.976c-1.312 0-2.144.784-2.336 2.16h4.512c0-1.296-.848-2.16-2.176-2.16Zm9.84-1.104v1.376h-.672c-1.424 0-2.304.864-2.304 2.368V91h-1.504v-7.808h1.408l.096 1.184c.32-.816 1.104-1.36 2.176-1.36.272 0 .496.032.8.096ZM69.202 91h-1.505v-7.824h1.36l.16 1.2c.496-.896 1.488-1.424 2.592-1.424 2.064 0 3.008 1.264 3.008 3.264V91h-1.504v-4.448c0-1.584-.736-2.224-1.888-2.224-1.408 0-2.224 1.008-2.224 2.528V91Zm11.075.192c-2.305 0-3.889-1.664-3.889-4.096 0-2.448 1.552-4.144 3.825-4.144 2.224 0 3.68 1.536 3.68 3.856v.56l-6.049.016c.113 1.648.977 2.56 2.465 2.56 1.168 0 1.936-.48 2.192-1.376h1.407c-.383 1.68-1.695 2.624-3.632 2.624Zm-.064-6.976c-1.313 0-2.144.784-2.337 2.16h4.512c0-1.296-.848-2.16-2.175-2.16ZM86.987 91l-2.56-7.824h1.552l1.296 4.064c.176.576.336 1.168.48 1.856.128-.688.336-1.344.512-1.856l1.312-4.064h1.536l1.296 4.064c.128.384.384 1.296.512 1.856.128-.624.272-1.168.496-1.856l1.312-4.064h1.568L93.627 91h-1.424l-1.36-4.192c-.256-.784-.416-1.392-.496-1.824-.08.384-.224.896-.512 1.84L88.475 91h-1.488Zm16.656 0-2.56-7.824h1.552l1.296 4.064c.176.576.336 1.168.48 1.856.128-.688.336-1.344.512-1.856l1.312-4.064h1.536l1.296 4.064c.128.384.384 1.296.512 1.856.128-.624.272-1.168.496-1.856l1.312-4.064h1.568L110.283 91h-1.424l-1.36-4.192c-.256-.784-.416-1.392-.496-1.824-.08.384-.224.896-.512 1.84L105.131 91h-1.488Zm9.73-3.92c0-2.416 1.728-4.112 4.08-4.112 2.336 0 4.064 1.696 4.064 4.112 0 2.416-1.728 4.112-4.064 4.112-2.352 0-4.08-1.696-4.08-4.112Zm1.52 0c0 1.632 1.04 2.768 2.56 2.768 1.504 0 2.56-1.136 2.56-2.768s-1.056-2.768-2.56-2.768c-1.52 0-2.56 1.136-2.56 2.768Zm12.769-3.968v1.376h-.672c-1.424 0-2.304.864-2.304 2.368V91h-1.504v-7.808h1.408l.096 1.184c.32-.816 1.104-1.36 2.176-1.36.272 0 .496.032.8.096ZM130.608 91h-1.504V79.224h1.504V91Zm5.35.192c-2.272 0-3.648-1.696-3.648-4.08 0-2.4 1.392-4.16 3.712-4.16 1.2 0 2.208.528 2.736 1.488v-5.216h1.488V91h-1.344l-.128-1.424c-.512 1.072-1.568 1.616-2.816 1.616Zm.304-1.36c1.536 0 2.48-1.136 2.48-2.768 0-1.6-.944-2.752-2.48-2.752s-2.432 1.152-2.432 2.752c0 1.616.896 2.768 2.432 2.768Z"/></svg>