<svg xmlns="http://www.w3.org/2000/svg" width="22" height="22" fill="none"><path fill="#fff" d="M18.239 4.539c.363.429.672.904.918 1.415a2.194 2.194 0 0 1-2.675.341L18.24 4.54Zm-.778-.78-1.756 1.759a2.193 2.193 0 0 1 .34-2.674c.512.245.987.554 1.416.916ZM19.8 8.8c0-.59-.078-1.18-.234-1.749-.55.407-1.23.649-1.966.649a3.284 3.284 0 0 1-1.913-.61l-1.16 1.16 4.184 4.183A6.58 6.58 0 0 0 19.8 8.8Zm-5.5-4.4c0-.737.24-1.417.649-1.966A6.607 6.607 0 0 0 13.2 2.2a6.567 6.567 0 0 0-3.633 1.089l4.183 4.183 1.16-1.16A3.285 3.285 0 0 1 14.3 4.4Zm-1.422 5.5a9.865 9.865 0 0 1 2.418 5.16 6.604 6.604 0 0 0 2.729-1.757L13.75 9.028l-.872.872Zm.094-1.65-.872.871a9.864 9.864 0 0 0-5.159-2.418 6.605 6.605 0 0 1 1.757-2.728l4.274 4.275ZM3.85 7.7A1.65 1.65 0 0 0 2.2 9.35V11a8.8 8.8 0 0 0 8.8 8.8h1.65a1.65 1.65 0 0 0 1.65-1.65V16.5a8.8 8.8 0 0 0-8.8-8.8H3.85Zm2.91 4.56a.551.551 0 0 1 .78 0l2.2 2.2a.55.55 0 0 1-.78.78l-2.2-2.2a.55.55 0 0 1 0-.78Z"/></svg>