<svg xmlns="http://www.w3.org/2000/svg" width="138" height="86" fill="none"><path fill="#3DDEED" fill-opacity=".8" d="M22.28 41.968h3.36v-3.36h1.28v3.36h3.36v1.28h-3.36v3.376h-1.28v-3.376h-3.36v-1.28Zm12.274-4.128h-2.431v-1.408h3.936V48h-1.505V37.84Zm3.62 4.384c0-3.584 1.857-6.016 4.769-6.016 2.896 0 4.752 2.432 4.752 6.016 0 3.6-1.776 5.984-4.752 5.984-2.992 0-4.768-2.384-4.768-5.984Zm1.553 0c0 2.848 1.184 4.576 3.216 4.576s3.2-1.728 3.2-4.576c0-2.88-1.168-4.608-3.2-4.608s-3.216 1.728-3.216 4.608Zm9.541 0c0-3.584 1.856-6.016 4.768-6.016 2.896 0 4.752 2.432 4.752 6.016 0 3.6-1.776 5.984-4.752 5.984-2.992 0-4.768-2.384-4.768-5.984Zm1.552 0c0 2.848 1.184 4.576 3.216 4.576s3.2-1.728 3.2-4.576c0-2.88-1.168-4.608-3.2-4.608s-3.216 1.728-3.216 4.608Zm19.437-4.512c-2.496 0-4 1.84-4 4.576 0 2.8 1.632 4.416 4.016 4.416 1.968 0 3.552-1.008 3.552-3.344v-.336h-3.872v-1.392h5.344v6.384h-1.312l-.112-1.568c-.624 1.008-2.032 1.744-3.728 1.744-3.28 0-5.536-2.368-5.536-5.936 0-3.52 2.272-6.016 5.68-6.016 2.528 0 4.496 1.456 4.88 3.68h-1.664c-.432-1.472-1.712-2.208-3.248-2.208Zm9.306 10.48c-1.68 0-2.672-.944-2.672-2.368 0-1.44 1.072-2.336 2.912-2.48l2.465-.192v-.224c0-1.312-.784-1.776-1.84-1.776-1.264 0-1.984.56-1.984 1.504H77.13c0-1.632 1.344-2.704 3.36-2.704 1.936 0 3.249 1.024 3.249 3.136V48h-1.28l-.16-1.264c-.4.896-1.472 1.456-2.736 1.456Zm.433-1.168c1.424 0 2.288-.928 2.288-2.4v-.416l-2 .16c-1.329.128-1.873.64-1.873 1.408 0 .832.608 1.248 1.585 1.248Zm7.33.976h-1.504v-7.824h1.344l.144 1.024c.4-.736 1.232-1.248 2.336-1.248 1.216 0 2.08.608 2.48 1.584.368-.976 1.312-1.584 2.528-1.584 1.792 0 2.88 1.12 2.88 2.928V48h-1.472v-4.752c0-1.232-.688-1.936-1.744-1.936-1.136 0-1.888.8-1.888 2.048V48h-1.488v-4.768c0-1.232-.672-1.904-1.728-1.904-1.136 0-1.888.784-1.888 2.032V48Zm15.669.192c-2.304 0-3.888-1.664-3.888-4.096 0-2.448 1.552-4.144 3.824-4.144 2.224 0 3.68 1.536 3.68 3.856v.56l-6.048.016c.112 1.648.976 2.56 2.464 2.56 1.168 0 1.936-.48 2.192-1.376h1.408c-.384 1.68-1.696 2.624-3.632 2.624Zm-.064-6.976c-1.312 0-2.144.784-2.336 2.16h4.512c0-1.296-.848-2.16-2.176-2.16Zm4.72 4.512h1.44c0 .8.608 1.28 1.6 1.28 1.056 0 1.664-.432 1.664-1.152 0-.528-.256-.848-1.072-1.056l-1.376-.32c-1.392-.336-2.048-1.024-2.048-2.176 0-1.44 1.216-2.352 2.944-2.352 1.712 0 2.832.96 2.864 2.448h-1.44c-.032-.784-.56-1.28-1.472-1.28-.944 0-1.472.416-1.472 1.136 0 .528.384.88 1.152 1.072l1.376.336c1.328.32 1.984.928 1.984 2.096 0 1.488-1.28 2.432-3.136 2.432-1.84 0-3.008-.976-3.008-2.464Z"/><path stroke="#3DDEED" stroke-opacity=".8" d="M2.45 77.394h132.305V35.987l-26.54-28.31H2.451v69.717Z"/><path stroke="#3DDEED" stroke-opacity=".8" d="M4.564 74.793h127.752V37.288l-25.564-27.172H4.564v64.677Z"/><path fill="#3DDEED" fill-opacity=".8" d="M78.52 80.17V77.73h56.572v-8.29l1.951 2.275v8.454H78.519Z"/><path stroke="#3DDEED" stroke-opacity=".8" d="M17.557 80.645h.236l.15.183 3.59 4.369h6.09v-5.828H3.143l1.003 1.276h13.412Z"/><path fill="#3DDEED" fill-opacity=".8" d="m0 20.67 2.113 2.114V7.34h12.518l-1.95-1.95H0v15.28Z"/><path fill="#3DDEED" fill-opacity=".8" stroke="#3DDEED" stroke-opacity=".8" d="M108.431 1v5.04h-62.75L49.583 1h58.848Z"/></svg>