<svg xmlns="http://www.w3.org/2000/svg" width="30" height="23" fill="none"><g fill="#687684" filter="url(#a)"><path d="M8.281.17a.644.644 0 0 0-.87 0L4.225 3.16c-.3.283-.3.74 0 1.022.3.282.788.282 1.088 0l1.764-1.656v8.658c0 1.995 1.722 3.612 3.846 3.612h4.923c.425 0 .77-.324.77-.723 0-.399-.345-.722-.77-.722h-4.923c-1.274 0-2.308-.97-2.308-2.167V2.526l1.764 1.656c.3.282.788.282 1.088 0 .3-.282.3-.74 0-1.021L8.281.169ZM21.719 14.83c.24.226.63.226.87 0l3.186-2.99c.3-.283.3-.74 0-1.022a.805.805 0 0 0-1.088 0l-1.764 1.656V3.816c0-1.995-1.722-3.612-3.846-3.612h-4.923c-.425 0-.77.324-.77.723 0 .399.345.722.77.722h4.923c1.274 0 2.308.97 2.308 2.167v8.658l-1.764-1.656a.805.805 0 0 0-1.088 0c-.3.282-.3.74 0 1.021l3.186 2.992Z"/></g><defs><filter id="a" width="30" height="23" x="0" y="0" color-interpolation-filters="sRGB" filterUnits="userSpaceOnUse"><feFlood flood-opacity="0" result="BackgroundImageFix"/><feColorMatrix in="SourceAlpha" result="hardAlpha" values="0 0 0 0 0 0 0 0 0 0 0 0 0 0 0 0 0 0 127 0"/><feOffset dy="4"/><feGaussianBlur stdDeviation="2"/><feComposite in2="hardAlpha" operator="out"/><feColorMatrix values="0 0 0 0 0 0 0 0 0 0 0 0 0 0 0 0 0 0 0.25 0"/><feBlend in2="BackgroundImageFix" result="effect1_dropShadow_5_542"/><feBlend in="SourceGraphic" in2="effect1_dropShadow_5_542" result="shape"/></filter></defs></svg>