<svg xmlns="http://www.w3.org/2000/svg" aria-hidden="true"> 
<defs>
<symbol id="icon-arrow-left" width="16" height="16" viewBox="0 0 16 16" fill="none" >
  <path d="M8 16L9.41 14.59L3.83 9L16 9V7L3.83 7L9.41 1.41L8 0L0 8L8 16Z" fill="#3DDEED" />
</symbol>
<symbol id="icon-arrow-right" width="16" height="16" viewBox="0 0 16 16" fill="none">
  <path d="M8 0L6.59 1.41L12.17 7H0V9H12.17L6.59 14.59L8 16L16 8L8 0Z" fill="#3DDEED" />
</symbol>
<symbol id="icon-arrow-collapse"  viewBox="0 0 14 15" fill="none"  >
  <path d="M14 7.5L12.7663 6.26625L7.875 11.1488L7.875 0.5L6.125 0.5L6.125 11.1488L1.23375 6.26625L0 7.5L7 14.5L14 7.5Z" />
</symbol>


</svg>