<svg xmlns="http://www.w3.org/2000/svg" aria-hidden="true"> 
<defs>
<symbol id="icon-arrow-left" width="16" height="16" viewBox="0 0 16 16" fill="none" >
  <path d="M8 16L9.41 14.59L3.83 9L16 9V7L3.83 7L9.41 1.41L8 0L0 8L8 16Z" fill="#3DDEED" />
</symbol>
<symbol id="icon-arrow-right" viewBox="0 0 16 16" fill="none">
  <path d="M8 0L6.59 1.41L12.17 7H0V9H12.17L6.59 14.59L8 16L16 8L8 0Z" fill="#3DDEED" />
</symbol>
<symbol id="icon-arrow-collapse"  viewBox="0 0 14 15" fill="none"  >
  <path d="M14 7.5L12.7663 6.26625L7.875 11.1488L7.875 0.5L6.125 0.5L6.125 11.1488L1.23375 6.26625L0 7.5L7 14.5L14 7.5Z" />
</symbol>
<symbol id="prize" width="14" height="18" viewBox="0 0 14 18" fill="none" >
  <path d="M3.88799 12.4742C3.5938 12.18 3.74715 12.263 3.03758 12.0731C2.71563 11.9868 2.43261 11.8209 2.17668 11.6222L0.640728 15.3874C0.49211 15.7519 0.769711 16.1479 1.16309 16.133L2.94685 16.065L4.17371 17.3606C4.44454 17.6463 4.91985 17.5573 5.06847 17.1928L6.83056 12.8732C6.46358 13.0776 6.05632 13.1975 5.63518 13.1975C4.97503 13.1975 4.35483 12.9406 3.88799 12.4742ZM13.5593 15.3874L12.0234 11.6222C11.7675 11.8212 11.4844 11.9868 11.1625 12.0731C10.4492 12.264 10.6056 12.1807 10.3121 12.4742C9.84524 12.9406 9.2247 13.1975 8.56455 13.1975C8.14341 13.1975 7.73615 13.0773 7.36917 12.8732L9.13127 17.1928C9.27988 17.5573 9.75553 17.6463 10.026 17.3606L11.2532 16.065L13.037 16.133C13.4304 16.1479 13.708 15.7516 13.5593 15.3874ZM9.50366 11.7082C10.0209 11.1819 10.0802 11.2272 10.8168 11.0265C11.2871 10.8982 11.6547 10.5242 11.7807 10.0456C12.0339 9.08438 11.9682 9.20048 12.6592 8.49714C13.0035 8.14682 13.1379 7.63607 13.0119 7.15747C12.759 6.19689 12.7587 6.33093 13.0119 5.36934C13.1379 4.89074 13.0035 4.37999 12.6592 4.02967C11.9682 3.32633 12.0339 3.44209 11.7807 2.48117C11.6547 2.00258 11.2871 1.62857 10.8168 1.50029C9.873 1.24271 9.98675 1.31007 9.29512 0.606388C8.95083 0.256072 8.44877 0.118991 7.97854 0.247271C7.03504 0.504508 7.16673 0.504847 6.22153 0.247271C5.7513 0.118991 5.24925 0.255733 4.90496 0.606388C4.214 1.30973 4.32775 1.24271 3.38356 1.50029C2.91334 1.62857 2.54568 2.00258 2.41975 2.48117C2.16686 3.44209 2.2322 3.32633 1.54124 4.02967C1.19695 4.37999 1.06221 4.89074 1.18848 5.36934C1.44137 6.32924 1.44171 6.1952 1.18848 7.15713C1.06255 7.63573 1.19695 8.14648 1.54124 8.49714C2.2322 9.20048 2.16652 9.08438 2.41975 10.0456C2.54568 10.5242 2.91334 10.8982 3.38356 11.0265C4.14121 11.233 4.19775 11.2005 4.69642 11.7082C5.1443 12.1641 5.84203 12.2457 6.3803 11.9052C6.59555 11.7686 6.84525 11.696 7.10021 11.696C7.35517 11.696 7.60486 11.7686 7.82011 11.9052C8.35805 12.2457 9.05577 12.1641 9.50366 11.7082ZM3.90627 6.15594C3.90627 4.36103 5.33625 2.90595 7.10004 2.90595C8.86382 2.90595 10.2938 4.36103 10.2938 6.15594C10.2938 7.95085 8.86382 9.40593 7.10004 9.40593C5.33625 9.40593 3.90627 7.95085 3.90627 6.15594Z" fill="rgba(191, 35, 245)" />
</symbol>
<symbol id="warranty" width="14" height="18" viewBox="0 0 14 18" fill="none" >
  <path d="M13.201 4.2662L8.00098 2.09953C7.84258 2.03382 7.67278 2 7.50129 2C7.32981 2 7.16 2.03382 7.00161 2.09953L1.80161 4.2662C1.31681 4.46662 0.999939 4.94057 0.999939 5.46599C0.999939 10.842 4.10098 14.5579 6.9989 15.7658C7.31848 15.8985 7.67869 15.8985 7.99827 15.7658C10.3193 14.7989 13.9999 11.4595 13.9999 5.46599C13.9999 4.94057 13.6831 4.46662 13.201 4.2662ZM7.50265 14.0866L7.49994 3.76787L12.2639 5.75307C12.1745 9.85349 10.0404 12.8245 7.50265 14.0866Z" fill="rgba(191, 35, 245)" />
</symbol>
<symbol id="safety" width="14" height="18" viewBox="0 0 14 18" fill="none" >
  <path d="M0.999939 2C14.8589 2 11.6379 11.2074 11.6524 12.6292L13.9999 15H13.2455L11.2026 12.9339C10.0709 13.0558 7.5928 13.935 4.98119 11.8603C2.36378 9.78549 2.50887 7.30156 0.999939 2ZM3.31266 3.33482C1.87047 2.6529 3.16177 3.60179 3.16177 3.60179C4.47338 4.50714 5.07695 5.7404 5.77918 7.08103C6.69324 8.8279 8.07159 11.1348 9.96355 11.9473C11.8497 12.7598 10.956 12.31 10.1377 11.7007C9.31936 11.0855 8.15864 9.17612 7.49704 7.92254C6.57717 6.18147 5.72695 4.48103 3.31266 3.33482Z" fill="rgba(191, 35, 245)" />
</symbol>
<symbol id="seeDetails" width="12" height="12" viewBox="0 0 12 12" fill="none" >
  <path d="M6 0C9.31452 0 12 2.68548 12 6C12 9.31452 9.31452 12 6 12C2.68548 12 0 9.31452 0 6C0 2.68548 2.68548 0 6 0ZM8.75564 5.58871L5.47742 2.31048C5.25 2.08306 4.88226 2.08306 4.65726 2.31048L4.24597 2.72177C4.01855 2.94919 4.01855 3.31694 4.24597 3.54194L6.70403 6L4.24597 8.45806C4.01855 8.68548 4.01855 9.05323 4.24597 9.27823L4.65726 9.68952C4.88468 9.91693 5.25242 9.91693 5.47742 9.68952L8.75564 6.41129C8.98306 6.18387 8.98306 5.81613 8.75564 5.58871Z" fill="#5bafb7" />
</symbol>
<symbol id="star"  viewBox="0 0 22 22" fill="none" >
  <path d="M11 0L14.8891 7.11091L22 11L14.8891 14.8891L11 22L7.11091 14.8891L0 11L7.11091 7.11091L11 0Z" fill="#bd00ff" fill-opacity="0.9" />
</symbol>
<symbol id="emptyStar" width="16" height="15" viewBox="0 0 16 15" fill="none" >
  <path d="M7.55778 0.838169C7.74538 0.482595 8.25462 0.482596 8.44222 0.838169L10.3305 4.41705C10.4028 4.55417 10.5347 4.64997 10.6874 4.67641L14.6747 5.36629C15.0708 5.43484 15.2282 5.91915 14.948 6.20745L12.1277 9.10921C12.0197 9.22039 11.9693 9.3754 11.9914 9.52886L12.5674 13.5341C12.6246 13.932 12.2126 14.2314 11.8519 14.054L8.22062 12.2685C8.0815 12.2001 7.9185 12.2001 7.77938 12.2685L4.14815 14.054C3.78737 14.2314 3.37539 13.932 3.43262 13.5341L4.00861 9.52886C4.03068 9.3754 3.98031 9.22039 3.87226 9.10921L1.05204 6.20745C0.771841 5.91915 0.929206 5.43484 1.32535 5.36629L5.31256 4.67641C5.46533 4.64997 5.59719 4.55417 5.66954 4.41705L7.55778 0.838169Z" fill="#F2F4F7" />
</symbol>
<symbol id="goldStar" width="16" height="15" viewBox="0 0 16 15" fill="none" >
  <path d="M7.55778 0.838169C7.74538 0.482595 8.25462 0.482596 8.44222 0.838169L10.3305 4.41705C10.4028 4.55417 10.5347 4.64997 10.6874 4.67641L14.6747 5.36629C15.0708 5.43484 15.2282 5.91915 14.948 6.20745L12.1277 9.10921C12.0197 9.22039 11.9693 9.3754 11.9914 9.52886L12.5674 13.5341C12.6246 13.932 12.2126 14.2314 11.8519 14.054L8.22062 12.2685C8.0815 12.2001 7.9185 12.2001 7.77938 12.2685L4.14815 14.054C3.78737 14.2314 3.37539 13.932 3.43262 13.5341L4.00861 9.52886C4.03068 9.3754 3.98031 9.22039 3.87226 9.10921L1.05204 6.20745C0.771841 5.91915 0.929206 5.43484 1.32535 5.36629L5.31256 4.67641C5.46533 4.64997 5.59719 4.55417 5.66954 4.41705L7.55778 0.838169Z" fill="#FFC531" />
</symbol>
<symbol id="dump" fill="#000000" height="20px" width="20px" version="1.1"   xmlns:xlink="http://www.w3.org/1999/xlink" 
	 viewBox="0 0 297 297" xml:space="preserve">

		<path d="M228.027,33.775h-35.564v-4.723C192.462,13.032,179.429,0,163.409,0h-29.82c-16.02,0-29.052,13.032-29.052,29.052v4.723
			H68.973c-17.596,0-31.912,14.316-31.912,31.912v18.658c0,5.646,4.578,10.224,10.224,10.224h7.462L68.641,261.3
			c1.668,20.019,18.711,35.7,38.799,35.7h82.119c20.088,0,37.131-15.681,38.799-35.7l13.894-166.73h7.462
			c5.646,0,10.224-4.578,10.224-10.224V65.688C259.939,48.092,245.623,33.775,228.027,33.775z M124.985,29.052
			c0-4.744,3.86-8.604,8.604-8.604h29.82c4.745,0,8.605,3.86,8.605,8.604v4.723h-47.029V29.052z M207.981,259.602
			c-0.792,9.505-8.884,16.95-18.422,16.95H107.44c-9.538,0-17.63-7.445-18.422-16.95L75.265,94.57h146.469L207.981,259.602z
			 M239.492,74.123H57.509v-8.435c0-6.322,5.143-11.465,11.465-11.465h159.053c6.322,0,11.465,5.143,11.465,11.465V74.123z"/>

</symbol>
<symbol data-name="Layer 1" id="profile" viewBox="0 0 48 48" ><title/><path d="M24,21A10,10,0,1,1,34,11,10,10,0,0,1,24,21ZM24,5a6,6,0,1,0,6,6A6,6,0,0,0,24,5Z"/><path d="M42,47H6a2,2,0,0,1-2-2V39A16,16,0,0,1,20,23h8A16,16,0,0,1,44,39v6A2,2,0,0,1,42,47ZM8,43H40V39A12,12,0,0,0,28,27H20A12,12,0,0,0,8,39Z"/></symbol>
<symbol id="favorite"  viewBox="0 0 26 24" fill="none">
  <path d="M13 9.854L11.659 7.1705C11.326 6.506 10.7485 5.5505 9.931 4.778C9.127 4.0175 8.164 3.5 7 3.5C4.486 3.5 2.5 5.489 2.5 7.88C2.5 9.6965 3.331 10.979 5.302 12.935C5.8075 13.436 6.3835 13.9775 7.021 14.5745C8.683 16.1345 10.75 18.0755 13 20.6705C15.25 18.0755 17.317 16.1345 18.979 14.5745C19.6165 13.9775 20.194 13.4345 20.698 12.935C22.669 10.979 23.5 9.6965 23.5 7.88C23.5 5.489 21.514 3.5 19 3.5C17.8345 3.5 16.873 4.0175 16.069 4.778C15.2515 5.5505 14.674 6.506 14.341 7.1705L13 9.854ZM13.588 22.292C13.5158 22.3776 13.4257 22.4463 13.3242 22.4935C13.2226 22.5407 13.112 22.5651 13 22.5651C12.888 22.5651 12.7774 22.5407 12.6758 22.4935C12.5743 22.4463 12.4842 22.3776 12.412 22.292C10.0105 19.439 7.837 17.399 6.0475 15.7205C2.95 12.812 1 10.9835 1 7.88C1 4.6325 3.685 2 7 2C9.4 2 11.0785 3.575 12.106 5.012C12.496 5.5595 12.793 6.086 13 6.5C13.2597 5.982 13.5586 5.48456 13.894 5.012C14.9215 3.5735 16.6 2 19 2C22.315 2 25 4.6325 25 7.88C25 10.9835 23.05 12.812 19.9525 15.7205C18.163 17.4005 15.9895 19.442 13.588 22.292Z" fill="#101828" />
</symbol>
<symbol id="gamingPatterns1"  viewBox="0 0 197 160" fill="none" >
  <path d="M62.4082 8.30322H194.712V49.7101L168.172 78.0194H62.4082V8.30322Z" stroke="#3DDEED" stroke-opacity="0.8" />
  <path d="M64.5215 10.9043H192.274V48.409L166.71 75.5809H64.5215V10.9043Z" stroke="#3DDEED" stroke-opacity="0.8" />
  <path d="M138.477 5.52734V7.96583H195.05V16.2567L197 13.9808V5.52734H138.477Z" fill="#3DDEED" fill-opacity="0.8" />
  <path d="M77.5141 5.05185H77.7504L77.9004 4.86921L81.4894 0.5H87.5809V6.32777H63.099L64.1016 5.05185H77.5141Z" stroke="#3DDEED" stroke-opacity="0.8" />
  <path d="M59.957 65.0264L62.0704 62.9131V78.3568H74.588L72.6372 80.3076H59.957V65.0264Z" fill="#3DDEED" fill-opacity="0.8" />
  <path d="M54.2676 68.4401V36.2521L60.7702 32.0112V32.0254V62.1001L58.3317 64.376V71.5289L54.2676 68.4401Z" fill="#3DDEED" fill-opacity="0.8" />
  <path d="M54 64V106.239H82.7009L83 138" stroke="#3DDEED" stroke-opacity="0.8" />
  <path d="M17.4707 77.5L23.1245 88L17.4707 98.5L6.2218 98.5L0.567953 88L6.2218 77.5L17.4707 77.5Z" stroke="#3DDEED" stroke-opacity="0.8" />
  <path d="M20.3079 88L16.0771 95.1176L7.61555 95.1176L3.38478 88L7.61555 80.8823L16.0771 80.8823L20.3079 88Z" fill="#3DDEED" fill-opacity="0.8" />
  <path d="M88.4706 138.5L94.1244 149L88.4706 159.5L77.2217 159.5L71.5679 149L77.2217 138.5L88.4706 138.5Z" stroke="#3DDEED" stroke-opacity="0.8" />
  <path d="M91.3078 149L87.077 156.118L78.6155 156.118L74.3847 149L78.6155 141.882L87.077 141.882L91.3078 149Z" fill="#3DDEED" fill-opacity="0.8" />
  <path d="M54.4299 81.283H43.0503L36.7102 88.4359H23.0547" stroke="#3DDEED" stroke-opacity="0.8" />
  <path d="M168.388 90.8743V79.6572H105.638L109.539 84.6968H152.457L156.358 90.8743H168.388Z" fill="#3DDEED" fill-opacity="0.8" stroke="#3DDEED" stroke-opacity="0.8" />
</symbol>
<symbol id="gamingPatterns2"  viewBox="0 0 138 86" fill="none" >
  <path d="M2.4502 77.3936L134.754 77.3936V35.9867L108.214 7.67738H2.4502L2.4502 77.3936Z" stroke="#3DDEED" stroke-opacity="0.8" />
  <path d="M4.56445 74.7925H132.317V37.2877L106.753 10.1159H4.56445L4.56445 74.7925Z" stroke="#3DDEED" stroke-opacity="0.8" />
  <path d="M78.5195 80.1694V77.7309H135.092V69.4401L137.043 71.716V80.1694H78.5195Z" fill="#3DDEED" fill-opacity="0.8" />
  <path d="M17.557 80.6449H17.7934L17.9434 80.8276L21.5324 85.1968H27.6238V79.369H3.14201L4.14452 80.6449H17.557Z" stroke="#3DDEED" stroke-opacity="0.8" />
  <path d="M0 20.6703L2.11336 22.7837L2.11336 7.33993H14.6309L12.6801 5.38914H0L0 20.6703Z" fill="#3DDEED" fill-opacity="0.8" />
  <path d="M108.431 1.00001V6.03955L45.6807 6.03955L49.5822 1.00001L92.4996 1.00001L108.431 1.00001Z" fill="#3DDEED" fill-opacity="0.8" stroke="#3DDEED" stroke-opacity="0.8" />
</symbol>
<symbol id="gradient" width="600" height="600" viewBox="0 0 1367 1704" fill="none" >
  <g filter="url(#filter0_d_5_795)">
    <g filter="url(#filter1_f_5_795)">
      <ellipse cx="683.5" cy="852" rx="394" ry="225.5" transform="rotate(90 683.5 852)" fill="#530070" fill-opacity="0.5" />
    </g>
  </g>
  <defs>
    <filter id="filter0_d_5_795" x="454" y="458" width="459" height="796" filterUnits="userSpaceOnUse" color-interpolation-filters="sRGB">
      <feFlood flood-opacity="0" result="BackgroundImageFix" />
      <feColorMatrix in="SourceAlpha" type="matrix" values="0 0 0 0 0 0 0 0 0 0 0 0 0 0 0 0 0 0 127 0" result="hardAlpha" />
      <feOffset dy="4" />
      <feGaussianBlur stdDeviation="2" />
      <feComposite in2="hardAlpha" operator="out" />
      <feColorMatrix type="matrix" values="0 0 0 0 0 0 0 0 0 0 0 0 0 0 0 0 0 0 0.25 0" />
      <feBlend mode="normal" in2="BackgroundImageFix" result="effect1_dropShadow_5_795" />
      <feBlend mode="normal" in="SourceGraphic" in2="effect1_dropShadow_5_795" result="shape" />
    </filter>
    <filter id="filter1_f_5_795" x="0" y="0" width="1367" height="1704" filterUnits="userSpaceOnUse" color-interpolation-filters="sRGB">
      <feFlood flood-opacity="0" result="BackgroundImageFix" />
      <feBlend mode="normal" in="SourceGraphic" in2="BackgroundImageFix" result="shape" />
      <feGaussianBlur stdDeviation="229" result="effect1_foregroundBlur_5_795" />
    </filter>
  </defs>
</symbol>
<symbol id="comment" width="18" height="18" viewBox="0 0 18 18" fill="none" >
  <path fill-rule="evenodd" clip-rule="evenodd" d="M7.8 12.7167C8.13137 12.7167 8.4 12.9945 8.4 13.337V15.7661C11.6985 13.7742 13.683 12.3651 14.8799 11.1348C15.5745 10.4208 15.9565 9.81197 16.1784 9.2314C16.4015 8.64763 16.5 7.99539 16.5 7.13377C16.5 4.05039 14.0823 1.55082 11.1 1.55082H6.9C3.91766 1.55082 1.5 4.05039 1.5 7.13377C1.5 10.2171 3.91766 12.7167 6.9 12.7167H7.8ZM8.4 17.5588C16.3969 12.8007 18 10.8519 18 7.13377C18 3.1939 14.9108 0 11.1 0H6.9C3.08924 0 0 3.1939 0 7.13377C0 11.0736 3.08924 14.2675 6.9 14.2675V17.3799C6.9 17.8544 7.39435 18.1531 7.79316 17.9181C7.99942 17.7966 8.20168 17.6768 8.4 17.5588Z" fill="#687684" />
</symbol>
<symbol id="retweet" width="20" height="18" viewBox="0 0 22 15" fill="none" >
  <path d="M4.2813 0.169256C4.04097 -0.056419 3.65133 -0.0564187 3.41101 0.169257L0.225302 3.1608C-0.0751008 3.4429 -0.0751008 3.90026 0.225302 4.18236C0.525706 4.46445 1.01276 4.46445 1.31316 4.18236L3.07692 2.52609V11.184C3.07692 13.1787 4.7989 14.7957 6.92308 14.7957H11.8462C12.271 14.7957 12.6154 14.4723 12.6154 14.0734C12.6154 13.6744 12.271 13.351 11.8462 13.351H6.92308C5.64857 13.351 4.61538 12.3808 4.61538 11.184V2.52609L6.37915 4.18236C6.67955 4.46445 7.1666 4.46445 7.46701 4.18236C7.76741 3.90026 7.76741 3.4429 7.46701 3.1608L4.2813 0.169256Z" fill="#687684" />
  <path d="M17.7187 14.8307C17.959 15.0564 18.3487 15.0564 18.589 14.8307L21.7747 11.8392C22.0751 11.5571 22.0751 11.0997 21.7747 10.8176C21.4743 10.5355 20.9872 10.5355 20.6868 10.8176L18.9231 12.4739V3.81601C18.9231 1.8213 17.2011 0.204267 15.0769 0.204267H10.1538C9.72901 0.204267 9.38462 0.527673 9.38462 0.926615C9.38462 1.32556 9.72901 1.64896 10.1538 1.64896H15.0769C16.3514 1.64896 17.3846 2.61918 17.3846 3.81601V12.4739L15.6209 10.8176C15.3204 10.5355 14.8334 10.5355 14.533 10.8176C14.2326 11.0997 14.2326 11.5571 14.533 11.8392L17.7187 14.8307Z" fill="#687684" />
</symbol>
<symbol id="like" width="18" height="18" viewBox="0 0 18 18" fill="none" >
  <path fill-rule="evenodd" clip-rule="evenodd" d="M3.96119 0.150396C5.05123 -0.141566 6.2019 -0.00504681 7.20137 0.530358L7.61327 0.751009C8.11061 1.01743 8.54778 1.38159 8.90511 1.81817C8.95514 1.8793 9.04486 1.8793 9.09489 1.81817C9.45222 1.38159 9.88938 1.01743 10.3867 0.751009L10.7986 0.530358C11.7981 -0.00504681 12.9488 -0.141566 14.0388 0.150396C15.0863 0.430973 16.0006 1.08628 16.6352 1.99281L16.8664 2.32305C17.6047 3.37766 18 4.65415 18 5.96096V6.32979C18 6.91456 17.9331 7.49738 17.8005 8.06532L17.7199 8.41077C17.4167 9.71042 16.8734 10.9347 16.1199 12.011L15.6502 12.6819C15.2726 13.2214 14.8595 13.7318 14.4138 14.2093L13.9375 14.7196C12.7946 15.9441 11.473 16.9651 10.0228 17.742C9.38063 18.086 8.61937 18.086 7.97717 17.742C6.52697 16.9651 5.20543 15.9441 4.06253 14.7196L3.58619 14.2093C3.14051 13.7318 2.72737 13.2214 2.34976 12.6819L1.8801 12.011C1.12661 10.9347 0.583331 9.71042 0.280066 8.41077L0.199456 8.06532C0.0669301 7.49738 0 6.91456 0 6.32979V5.96096C0 4.65415 0.395326 3.37766 1.13358 2.32305L1.36476 1.99281C1.99936 1.08628 2.91366 0.430973 3.96119 0.150396ZM6.50467 1.83091C5.83199 1.47057 5.06658 1.38174 4.34292 1.57557C3.64544 1.76238 3.01808 2.20376 2.57345 2.83893L2.34227 3.16917C1.78202 3.96949 1.47541 4.94911 1.47541 5.96096V6.32979C1.47541 6.80213 1.52949 7.27244 1.63627 7.73005L1.71688 8.0755C1.97826 9.19565 2.44542 10.2459 3.08879 11.1649L3.55845 11.8358C3.89687 12.3193 4.26661 12.776 4.66478 13.2025L5.14111 13.7129C6.17607 14.8217 7.36926 15.7426 8.67387 16.4414C8.88086 16.5523 9.11914 16.5523 9.32614 16.4414C10.6307 15.7426 11.8239 14.8217 12.8589 13.7129L13.3352 13.2025C13.7334 12.776 14.1031 12.3193 14.4416 11.8358L14.9112 11.1649C15.5546 10.2459 16.0217 9.19565 16.2831 8.0755L16.3637 7.73005C16.4705 7.27244 16.5246 6.80213 16.5246 6.32979V5.96096C16.5246 4.94911 16.218 3.96949 15.6577 3.16917L15.4266 2.83893C14.9819 2.20376 14.3546 1.76238 13.6571 1.57557C12.9334 1.38174 12.168 1.47057 11.4953 1.83091L11.0834 2.05157C10.5508 2.33691 10.1091 2.80519 9.83374 3.39515C9.34199 4.44885 8.65485 4.44208 8.16626 3.39515C7.89093 2.80519 7.44924 2.33691 6.91657 2.05157L6.50467 1.83091Z" fill="#687684" />
</symbol>
<symbol id="share" width="18" height="18" viewBox="0 0 18 18" fill="none" >
  <path fill-rule="evenodd" clip-rule="evenodd" d="M8.58269 0.178089C8.81316 -0.059363 9.18684 -0.0593633 9.41731 0.178089L13.6528 4.54182C13.9409 4.83864 13.9409 5.31987 13.6528 5.61669C13.3647 5.9135 12.8976 5.9135 12.6095 5.61669L9.73771 2.65792V11.7676C9.73771 12.1874 9.40742 12.5277 9 12.5277C8.59258 12.5277 8.26229 12.1874 8.26229 11.7676V2.65792L5.39049 5.61669C5.1024 5.9135 4.63531 5.9135 4.34722 5.61669C4.05912 5.31987 4.05912 4.83864 4.34722 4.54182L8.58269 0.178089ZM0.737705 9.79153C1.14513 9.79153 1.47541 10.1318 1.47541 10.5516V15.4159C1.47541 16.0035 1.9378 16.4799 2.5082 16.4799H15.4918C16.0622 16.4799 16.5246 16.0035 16.5246 15.4159V10.5516C16.5246 10.1318 16.8549 9.79153 17.2623 9.79153C17.6697 9.79153 18 10.1318 18 10.5516V15.4159C18 16.843 16.877 18 15.4918 18H2.5082C1.12296 18 0 16.843 0 15.4159V10.5516C0 10.1318 0.330282 9.79153 0.737705 9.79153Z" fill="#687684" />
</symbol>
<symbol id="school-icon" width="22" height="22" fill="none"><path fill="#fff" d="m5.12 15.714 4.439 2.389v2.85H2.124A2.103 2.103 0 0 1 0 18.856V2.095C0 1.54.224 1.007.622.614A2.14 2.14 0 0 1 2.124 0h1.062v7.333l2.655-1.571 2.656 1.571V0h6.372c.563 0 1.104.22 1.502.614.398.393.622.926.622 1.481v8.947l-1.593-.86-10.28 5.532Zm16.121 0L15.4 12.571l-5.841 3.143 5.841 3.143 5.841-3.143Zm-9.558 2.19v2.095L15.4 22l3.717-2.001v-2.095l-3.717 2-3.717-2Z"/></symbol>
<symbol id="sport-icon" width="22" height="22" fill="none"><path fill="#fff" d="M18.239 4.539c.363.429.672.904.918 1.415a2.194 2.194 0 0 1-2.675.341L18.24 4.54Zm-.778-.78-1.756 1.759a2.193 2.193 0 0 1 .34-2.674c.512.245.987.554 1.416.916ZM19.8 8.8c0-.59-.078-1.18-.234-1.749-.55.407-1.23.649-1.966.649a3.284 3.284 0 0 1-1.913-.61l-1.16 1.16 4.184 4.183A6.58 6.58 0 0 0 19.8 8.8Zm-5.5-4.4c0-.737.24-1.417.649-1.966A6.607 6.607 0 0 0 13.2 2.2a6.567 6.567 0 0 0-3.633 1.089l4.183 4.183 1.16-1.16A3.285 3.285 0 0 1 14.3 4.4Zm-1.422 5.5a9.865 9.865 0 0 1 2.418 5.16 6.604 6.604 0 0 0 2.729-1.757L13.75 9.028l-.872.872Zm.094-1.65-.872.871a9.864 9.864 0 0 0-5.159-2.418 6.605 6.605 0 0 1 1.757-2.728l4.274 4.275ZM3.85 7.7A1.65 1.65 0 0 0 2.2 9.35V11a8.8 8.8 0 0 0 8.8 8.8h1.65a1.65 1.65 0 0 0 1.65-1.65V16.5a8.8 8.8 0 0 0-8.8-8.8H3.85Zm2.91 4.56a.551.551 0 0 1 .78 0l2.2 2.2a.55.55 0 0 1-.78.78l-2.2-2.2a.55.55 0 0 1 0-.78Z"/></symbol>
</defs>

</svg>
