<svg xmlns="http://www.w3.org/2000/svg" aria-hidden="true"> 
<defs>
<symbol id="icon-arrow-left" width="16" height="16" viewBox="0 0 16 16" fill="none" >
  <path d="M8 16L9.41 14.59L3.83 9L16 9V7L3.83 7L9.41 1.41L8 0L0 8L8 16Z" fill="#3DDEED" />
</symbol>
<symbol id="icon-arrow-right" viewBox="0 0 16 16" fill="none">
  <path d="M8 0L6.59 1.41L12.17 7H0V9H12.17L6.59 14.59L8 16L16 8L8 0Z" fill="#3DDEED" />
</symbol>
<symbol id="icon-arrow-collapse"  viewBox="0 0 14 15" fill="none"  >
  <path d="M14 7.5L12.7663 6.26625L7.875 11.1488L7.875 0.5L6.125 0.5L6.125 11.1488L1.23375 6.26625L0 7.5L7 14.5L14 7.5Z" />
</symbol>
<symbol id="prize" width="14" height="18" viewBox="0 0 14 18" fill="none" >
  <path d="M3.88799 12.4742C3.5938 12.18 3.74715 12.263 3.03758 12.0731C2.71563 11.9868 2.43261 11.8209 2.17668 11.6222L0.640728 15.3874C0.49211 15.7519 0.769711 16.1479 1.16309 16.133L2.94685 16.065L4.17371 17.3606C4.44454 17.6463 4.91985 17.5573 5.06847 17.1928L6.83056 12.8732C6.46358 13.0776 6.05632 13.1975 5.63518 13.1975C4.97503 13.1975 4.35483 12.9406 3.88799 12.4742ZM13.5593 15.3874L12.0234 11.6222C11.7675 11.8212 11.4844 11.9868 11.1625 12.0731C10.4492 12.264 10.6056 12.1807 10.3121 12.4742C9.84524 12.9406 9.2247 13.1975 8.56455 13.1975C8.14341 13.1975 7.73615 13.0773 7.36917 12.8732L9.13127 17.1928C9.27988 17.5573 9.75553 17.6463 10.026 17.3606L11.2532 16.065L13.037 16.133C13.4304 16.1479 13.708 15.7516 13.5593 15.3874ZM9.50366 11.7082C10.0209 11.1819 10.0802 11.2272 10.8168 11.0265C11.2871 10.8982 11.6547 10.5242 11.7807 10.0456C12.0339 9.08438 11.9682 9.20048 12.6592 8.49714C13.0035 8.14682 13.1379 7.63607 13.0119 7.15747C12.759 6.19689 12.7587 6.33093 13.0119 5.36934C13.1379 4.89074 13.0035 4.37999 12.6592 4.02967C11.9682 3.32633 12.0339 3.44209 11.7807 2.48117C11.6547 2.00258 11.2871 1.62857 10.8168 1.50029C9.873 1.24271 9.98675 1.31007 9.29512 0.606388C8.95083 0.256072 8.44877 0.118991 7.97854 0.247271C7.03504 0.504508 7.16673 0.504847 6.22153 0.247271C5.7513 0.118991 5.24925 0.255733 4.90496 0.606388C4.214 1.30973 4.32775 1.24271 3.38356 1.50029C2.91334 1.62857 2.54568 2.00258 2.41975 2.48117C2.16686 3.44209 2.2322 3.32633 1.54124 4.02967C1.19695 4.37999 1.06221 4.89074 1.18848 5.36934C1.44137 6.32924 1.44171 6.1952 1.18848 7.15713C1.06255 7.63573 1.19695 8.14648 1.54124 8.49714C2.2322 9.20048 2.16652 9.08438 2.41975 10.0456C2.54568 10.5242 2.91334 10.8982 3.38356 11.0265C4.14121 11.233 4.19775 11.2005 4.69642 11.7082C5.1443 12.1641 5.84203 12.2457 6.3803 11.9052C6.59555 11.7686 6.84525 11.696 7.10021 11.696C7.35517 11.696 7.60486 11.7686 7.82011 11.9052C8.35805 12.2457 9.05577 12.1641 9.50366 11.7082ZM3.90627 6.15594C3.90627 4.36103 5.33625 2.90595 7.10004 2.90595C8.86382 2.90595 10.2938 4.36103 10.2938 6.15594C10.2938 7.95085 8.86382 9.40593 7.10004 9.40593C5.33625 9.40593 3.90627 7.95085 3.90627 6.15594Z" fill="rgba(191, 35, 245)" />
</symbol>
<symbol id="warranty" width="14" height="18" viewBox="0 0 14 18" fill="none" >
  <path d="M13.201 4.2662L8.00098 2.09953C7.84258 2.03382 7.67278 2 7.50129 2C7.32981 2 7.16 2.03382 7.00161 2.09953L1.80161 4.2662C1.31681 4.46662 0.999939 4.94057 0.999939 5.46599C0.999939 10.842 4.10098 14.5579 6.9989 15.7658C7.31848 15.8985 7.67869 15.8985 7.99827 15.7658C10.3193 14.7989 13.9999 11.4595 13.9999 5.46599C13.9999 4.94057 13.6831 4.46662 13.201 4.2662ZM7.50265 14.0866L7.49994 3.76787L12.2639 5.75307C12.1745 9.85349 10.0404 12.8245 7.50265 14.0866Z" fill="rgba(191, 35, 245)" />
</symbol>
<symbol id="safety" width="14" height="18" viewBox="0 0 14 18" fill="none" >
  <path d="M0.999939 2C14.8589 2 11.6379 11.2074 11.6524 12.6292L13.9999 15H13.2455L11.2026 12.9339C10.0709 13.0558 7.5928 13.935 4.98119 11.8603C2.36378 9.78549 2.50887 7.30156 0.999939 2ZM3.31266 3.33482C1.87047 2.6529 3.16177 3.60179 3.16177 3.60179C4.47338 4.50714 5.07695 5.7404 5.77918 7.08103C6.69324 8.8279 8.07159 11.1348 9.96355 11.9473C11.8497 12.7598 10.956 12.31 10.1377 11.7007C9.31936 11.0855 8.15864 9.17612 7.49704 7.92254C6.57717 6.18147 5.72695 4.48103 3.31266 3.33482Z" fill="rgba(191, 35, 245)" />
</symbol>
<symbol id="seeDetails" width="12" height="12" viewBox="0 0 12 12" fill="none" >
  <path d="M6 0C9.31452 0 12 2.68548 12 6C12 9.31452 9.31452 12 6 12C2.68548 12 0 9.31452 0 6C0 2.68548 2.68548 0 6 0ZM8.75564 5.58871L5.47742 2.31048C5.25 2.08306 4.88226 2.08306 4.65726 2.31048L4.24597 2.72177C4.01855 2.94919 4.01855 3.31694 4.24597 3.54194L6.70403 6L4.24597 8.45806C4.01855 8.68548 4.01855 9.05323 4.24597 9.27823L4.65726 9.68952C4.88468 9.91693 5.25242 9.91693 5.47742 9.68952L8.75564 6.41129C8.98306 6.18387 8.98306 5.81613 8.75564 5.58871Z" fill="#5bafb7" />
</symbol>
<symbol id="star"  viewBox="0 0 22 22" fill="none" >
  <path d="M11 0L14.8891 7.11091L22 11L14.8891 14.8891L11 22L7.11091 14.8891L0 11L7.11091 7.11091L11 0Z" fill="#bd00ff" fill-opacity="0.9" />
</symbol>
<symbol id="emptyStar" width="16" height="15" viewBox="0 0 16 15" fill="none" >
  <path d="M7.55778 0.838169C7.74538 0.482595 8.25462 0.482596 8.44222 0.838169L10.3305 4.41705C10.4028 4.55417 10.5347 4.64997 10.6874 4.67641L14.6747 5.36629C15.0708 5.43484 15.2282 5.91915 14.948 6.20745L12.1277 9.10921C12.0197 9.22039 11.9693 9.3754 11.9914 9.52886L12.5674 13.5341C12.6246 13.932 12.2126 14.2314 11.8519 14.054L8.22062 12.2685C8.0815 12.2001 7.9185 12.2001 7.77938 12.2685L4.14815 14.054C3.78737 14.2314 3.37539 13.932 3.43262 13.5341L4.00861 9.52886C4.03068 9.3754 3.98031 9.22039 3.87226 9.10921L1.05204 6.20745C0.771841 5.91915 0.929206 5.43484 1.32535 5.36629L5.31256 4.67641C5.46533 4.64997 5.59719 4.55417 5.66954 4.41705L7.55778 0.838169Z" fill="#F2F4F7" />
</symbol>
<symbol id="goldStar" width="16" height="15" viewBox="0 0 16 15" fill="none" >
  <path d="M7.55778 0.838169C7.74538 0.482595 8.25462 0.482596 8.44222 0.838169L10.3305 4.41705C10.4028 4.55417 10.5347 4.64997 10.6874 4.67641L14.6747 5.36629C15.0708 5.43484 15.2282 5.91915 14.948 6.20745L12.1277 9.10921C12.0197 9.22039 11.9693 9.3754 11.9914 9.52886L12.5674 13.5341C12.6246 13.932 12.2126 14.2314 11.8519 14.054L8.22062 12.2685C8.0815 12.2001 7.9185 12.2001 7.77938 12.2685L4.14815 14.054C3.78737 14.2314 3.37539 13.932 3.43262 13.5341L4.00861 9.52886C4.03068 9.3754 3.98031 9.22039 3.87226 9.10921L1.05204 6.20745C0.771841 5.91915 0.929206 5.43484 1.32535 5.36629L5.31256 4.67641C5.46533 4.64997 5.59719 4.55417 5.66954 4.41705L7.55778 0.838169Z" fill="#FFC531" />
</symbol>
<symbol id="dump" fill="#000000" height="20px" width="20px" version="1.1"   xmlns:xlink="http://www.w3.org/1999/xlink" 
	 viewBox="0 0 297 297" xml:space="preserve">

		<path d="M228.027,33.775h-35.564v-4.723C192.462,13.032,179.429,0,163.409,0h-29.82c-16.02,0-29.052,13.032-29.052,29.052v4.723
			H68.973c-17.596,0-31.912,14.316-31.912,31.912v18.658c0,5.646,4.578,10.224,10.224,10.224h7.462L68.641,261.3
			c1.668,20.019,18.711,35.7,38.799,35.7h82.119c20.088,0,37.131-15.681,38.799-35.7l13.894-166.73h7.462
			c5.646,0,10.224-4.578,10.224-10.224V65.688C259.939,48.092,245.623,33.775,228.027,33.775z M124.985,29.052
			c0-4.744,3.86-8.604,8.604-8.604h29.82c4.745,0,8.605,3.86,8.605,8.604v4.723h-47.029V29.052z M207.981,259.602
			c-0.792,9.505-8.884,16.95-18.422,16.95H107.44c-9.538,0-17.63-7.445-18.422-16.95L75.265,94.57h146.469L207.981,259.602z
			 M239.492,74.123H57.509v-8.435c0-6.322,5.143-11.465,11.465-11.465h159.053c6.322,0,11.465,5.143,11.465,11.465V74.123z"/>

</symbol>
<symbol data-name="Layer 1" id="profile" viewBox="0 0 48 48" ><title/><path d="M24,21A10,10,0,1,1,34,11,10,10,0,0,1,24,21ZM24,5a6,6,0,1,0,6,6A6,6,0,0,0,24,5Z"/><path d="M42,47H6a2,2,0,0,1-2-2V39A16,16,0,0,1,20,23h8A16,16,0,0,1,44,39v6A2,2,0,0,1,42,47ZM8,43H40V39A12,12,0,0,0,28,27H20A12,12,0,0,0,8,39Z"/></symbol>
<symbol id="favorite"  viewBox="0 0 26 24" fill="none">
  <path d="M13 9.854L11.659 7.1705C11.326 6.506 10.7485 5.5505 9.931 4.778C9.127 4.0175 8.164 3.5 7 3.5C4.486 3.5 2.5 5.489 2.5 7.88C2.5 9.6965 3.331 10.979 5.302 12.935C5.8075 13.436 6.3835 13.9775 7.021 14.5745C8.683 16.1345 10.75 18.0755 13 20.6705C15.25 18.0755 17.317 16.1345 18.979 14.5745C19.6165 13.9775 20.194 13.4345 20.698 12.935C22.669 10.979 23.5 9.6965 23.5 7.88C23.5 5.489 21.514 3.5 19 3.5C17.8345 3.5 16.873 4.0175 16.069 4.778C15.2515 5.5505 14.674 6.506 14.341 7.1705L13 9.854ZM13.588 22.292C13.5158 22.3776 13.4257 22.4463 13.3242 22.4935C13.2226 22.5407 13.112 22.5651 13 22.5651C12.888 22.5651 12.7774 22.5407 12.6758 22.4935C12.5743 22.4463 12.4842 22.3776 12.412 22.292C10.0105 19.439 7.837 17.399 6.0475 15.7205C2.95 12.812 1 10.9835 1 7.88C1 4.6325 3.685 2 7 2C9.4 2 11.0785 3.575 12.106 5.012C12.496 5.5595 12.793 6.086 13 6.5C13.2597 5.982 13.5586 5.48456 13.894 5.012C14.9215 3.5735 16.6 2 19 2C22.315 2 25 4.6325 25 7.88C25 10.9835 23.05 12.812 19.9525 15.7205C18.163 17.4005 15.9895 19.442 13.588 22.292Z" fill="#101828" />
</symbol>
<symbol id="gamingPatterns1"  viewBox="0 0 197 160" fill="none" >
  <path d="M62.4082 8.30322H194.712V49.7101L168.172 78.0194H62.4082V8.30322Z" stroke="#3DDEED" stroke-opacity="0.8" />
  <path d="M64.5215 10.9043H192.274V48.409L166.71 75.5809H64.5215V10.9043Z" stroke="#3DDEED" stroke-opacity="0.8" />
  <path d="M138.477 5.52734V7.96583H195.05V16.2567L197 13.9808V5.52734H138.477Z" fill="#3DDEED" fill-opacity="0.8" />
  <path d="M77.5141 5.05185H77.7504L77.9004 4.86921L81.4894 0.5H87.5809V6.32777H63.099L64.1016 5.05185H77.5141Z" stroke="#3DDEED" stroke-opacity="0.8" />
  <path d="M59.957 65.0264L62.0704 62.9131V78.3568H74.588L72.6372 80.3076H59.957V65.0264Z" fill="#3DDEED" fill-opacity="0.8" />
  <path d="M54.2676 68.4401V36.2521L60.7702 32.0112V32.0254V62.1001L58.3317 64.376V71.5289L54.2676 68.4401Z" fill="#3DDEED" fill-opacity="0.8" />
  <path d="M54 64V106.239H82.7009L83 138" stroke="#3DDEED" stroke-opacity="0.8" />
  <path d="M17.4707 77.5L23.1245 88L17.4707 98.5L6.2218 98.5L0.567953 88L6.2218 77.5L17.4707 77.5Z" stroke="#3DDEED" stroke-opacity="0.8" />
  <path d="M20.3079 88L16.0771 95.1176L7.61555 95.1176L3.38478 88L7.61555 80.8823L16.0771 80.8823L20.3079 88Z" fill="#3DDEED" fill-opacity="0.8" />
  <path d="M88.4706 138.5L94.1244 149L88.4706 159.5L77.2217 159.5L71.5679 149L77.2217 138.5L88.4706 138.5Z" stroke="#3DDEED" stroke-opacity="0.8" />
  <path d="M91.3078 149L87.077 156.118L78.6155 156.118L74.3847 149L78.6155 141.882L87.077 141.882L91.3078 149Z" fill="#3DDEED" fill-opacity="0.8" />
  <path d="M54.4299 81.283H43.0503L36.7102 88.4359H23.0547" stroke="#3DDEED" stroke-opacity="0.8" />
  <path d="M168.388 90.8743V79.6572H105.638L109.539 84.6968H152.457L156.358 90.8743H168.388Z" fill="#3DDEED" fill-opacity="0.8" stroke="#3DDEED" stroke-opacity="0.8" />
</symbol>
<symbol id="gamingPatterns2"  viewBox="0 0 138 86" fill="none" >
  <path d="M2.4502 77.3936L134.754 77.3936V35.9867L108.214 7.67738H2.4502L2.4502 77.3936Z" stroke="#3DDEED" stroke-opacity="0.8" />
  <path d="M4.56445 74.7925H132.317V37.2877L106.753 10.1159H4.56445L4.56445 74.7925Z" stroke="#3DDEED" stroke-opacity="0.8" />
  <path d="M78.5195 80.1694V77.7309H135.092V69.4401L137.043 71.716V80.1694H78.5195Z" fill="#3DDEED" fill-opacity="0.8" />
  <path d="M17.557 80.6449H17.7934L17.9434 80.8276L21.5324 85.1968H27.6238V79.369H3.14201L4.14452 80.6449H17.557Z" stroke="#3DDEED" stroke-opacity="0.8" />
  <path d="M0 20.6703L2.11336 22.7837L2.11336 7.33993H14.6309L12.6801 5.38914H0L0 20.6703Z" fill="#3DDEED" fill-opacity="0.8" />
  <path d="M108.431 1.00001V6.03955L45.6807 6.03955L49.5822 1.00001L92.4996 1.00001L108.431 1.00001Z" fill="#3DDEED" fill-opacity="0.8" stroke="#3DDEED" stroke-opacity="0.8" />
</symbol>
<symbol id="gradient" width="600" height="600" viewBox="0 0 1367 1704" fill="none" >
  <g filter="url(#filter0_d_5_795)">
    <g filter="url(#filter1_f_5_795)">
      <ellipse cx="683.5" cy="852" rx="394" ry="225.5" transform="rotate(90 683.5 852)" fill="#530070" fill-opacity="0.5" />
    </g>
  </g>
  <defs>
    <filter id="filter0_d_5_795" x="454" y="458" width="459" height="796" filterUnits="userSpaceOnUse" color-interpolation-filters="sRGB">
      <feFlood flood-opacity="0" result="BackgroundImageFix" />
      <feColorMatrix in="SourceAlpha" type="matrix" values="0 0 0 0 0 0 0 0 0 0 0 0 0 0 0 0 0 0 127 0" result="hardAlpha" />
      <feOffset dy="4" />
      <feGaussianBlur stdDeviation="2" />
      <feComposite in2="hardAlpha" operator="out" />
      <feColorMatrix type="matrix" values="0 0 0 0 0 0 0 0 0 0 0 0 0 0 0 0 0 0 0.25 0" />
      <feBlend mode="normal" in2="BackgroundImageFix" result="effect1_dropShadow_5_795" />
      <feBlend mode="normal" in="SourceGraphic" in2="effect1_dropShadow_5_795" result="shape" />
    </filter>
    <filter id="filter1_f_5_795" x="0" y="0" width="1367" height="1704" filterUnits="userSpaceOnUse" color-interpolation-filters="sRGB">
      <feFlood flood-opacity="0" result="BackgroundImageFix" />
      <feBlend mode="normal" in="SourceGraphic" in2="BackgroundImageFix" result="shape" />
      <feGaussianBlur stdDeviation="229" result="effect1_foregroundBlur_5_795" />
    </filter>
  </defs>
</symbol>
</defs>
</svg>